<?xml version="1.0" encoding="UTF-8"?>
<svg width="148px" height="23px" viewBox="0 0 148 23" version="1.1" xmlns="http://www.w3.org/2000/svg" xmlns:xlink="http://www.w3.org/1999/xlink">
    <!-- Generator: Sketch 62 (91390) - https://sketch.com -->
    <title>Artboard</title>
    <desc>Created with Sketch.</desc>
    <g id="Artboard" stroke="none" stroke-width="1" fill="none" fill-rule="evenodd">
        <path d="M35.398,20.312 C36.9406667,20.312 38.9513333,20.1126667 41.43,19.714 L41.43,19.714 L41.43,10.536 L36.282,10.536 L36.282,13.656 L37.894,13.656 L37.894,17.088 L35.736,17.192 C34.1586667,17.192 33.1186667,16.7846667 32.616,15.97 C32.1133333,15.1553333 31.862,13.7296667 31.862,11.693 C31.862,9.65633333 31.9876667,8.21766667 32.239,7.377 C32.4903333,6.53633333 32.8846667,5.96 33.422,5.648 C33.9593333,5.336 34.891,5.18 36.217,5.18 C37.543,5.18 39.246,5.29266667 41.326,5.518 L41.326,5.518 L41.43,2.736 L40.494,2.554 C38.622,2.19 36.88,2.008 35.268,2.008 C32.6853333,2.008 30.8566667,2.71866667 29.782,4.14 C28.7073333,5.56133333 28.17,7.87533333 28.17,11.082 C28.17,14.2886667 28.6856667,16.6286667 29.717,18.102 C30.7483333,19.5753333 32.642,20.312 35.398,20.312 Z M47.982,20 L47.982,11.29 L48.502,11.108 C49.5073333,10.796 50.712,10.4926667 52.116,10.198 L52.116,10.198 L52.116,6.688 C50.7986667,6.948 49.412,7.51133333 47.956,8.378 L47.956,8.378 L47.956,7 L44.498,7 L44.498,20 L47.982,20 Z M59.474,20.312 C63.4606667,20.312 65.454,18.0326667 65.454,13.474 C65.454,11.3246667 64.9946667,9.65633333 64.076,8.469 C63.1573333,7.28166667 61.6233333,6.688 59.474,6.688 C57.3246667,6.688 55.7906667,7.286 54.872,8.482 C53.9533333,9.66066667 53.494,11.3246667 53.494,13.474 C53.494,18.0326667 55.4873333,20.312 59.474,20.312 Z M59.474,17.348 C58.5553333,17.348 57.914,17.036 57.55,16.412 C57.2033333,15.788 57.03,14.8086667 57.03,13.474 C57.03,12.1393333 57.2076667,11.1686667 57.563,10.562 C57.9183333,9.95533333 58.5553333,9.652 59.474,9.652 C60.3926667,9.652 61.0296667,9.95533333 61.385,10.562 C61.7403333,11.1686667 61.918,12.1393333 61.918,13.474 C61.918,14.8086667 61.7403333,15.788 61.385,16.412 C61.0296667,17.036 60.3926667,17.348 59.474,17.348 Z M72.448,20.312 C73.3666667,20.312 74.45,19.9653333 75.698,19.272 L75.698,19.272 L75.698,20 L79.156,20 L79.156,7 L75.672,7 L75.672,16.724 L75.334,16.828 C74.658,17.0706667 73.9386667,17.192 73.176,17.192 C72.3786667,17.192 71.876,16.958 71.668,16.49 C71.46,16.022 71.356,15.1466667 71.356,13.864 L71.356,13.864 L71.356,7 L67.872,7 L67.872,13.812 C67.872,16.152 68.184,17.8203333 68.808,18.817 C69.432,19.8136667 70.6453333,20.312 72.448,20.312 Z M85.864,20 L85.864,10.276 L86.176,10.172 C86.8346667,9.92933333 87.5193333,9.808 88.23,9.808 C89.01,9.808 89.53,10.0723333 89.79,10.601 C90.05,11.1296667 90.18,11.9486667 90.18,13.058 L90.18,13.058 L90.18,20 L93.664,20 L93.664,12.954 C93.664,10.822 93.3346667,9.24466667 92.676,8.222 C92.0173333,7.19933333 90.8213333,6.688 89.088,6.688 C88.1,6.688 87.0166667,7.03466667 85.838,7.728 L85.838,7.728 L85.838,7 L82.38,7 L82.38,20 L85.864,20 Z M101.204,20.312 C102.088,20.312 103.136667,20.026 104.35,19.454 L104.35,19.454 L104.35,20 L107.808,20 L107.808,1.8 L104.324,1.8 L104.324,7.052 L103.83,6.948 C102.842,6.77466667 102.070667,6.688 101.516,6.688 C99.7133333,6.688 98.3656667,7.22966667 97.473,8.313 C96.5803333,9.39633333 96.134,11.121 96.134,13.487 C96.134,15.853 96.5066667,17.582 97.252,18.674 C97.9973333,19.766 99.3146667,20.312 101.204,20.312 Z M101.685,17.192 C100.965667,17.192 100.45,16.906 100.138,16.334 C99.826,15.762 99.67,14.8 99.67,13.448 C99.67,10.952 100.372,9.704 101.776,9.704 C102.521333,9.704 103.370667,9.79066667 104.324,9.964 L104.324,9.964 L104.324,16.802 L103.96,16.88 C103.162667,17.088 102.404333,17.192 101.685,17.192 Z M114.672,20 L114.672,1.8 L111.188,1.8 L111.188,20 L114.672,20 Z M121.536,5.336 L121.536,1.8 L118.052,1.8 L118.052,5.336 L121.536,5.336 Z M121.536,20 L121.536,7 L118.052,7 L118.052,20 L121.536,20 Z M129.284,20.312 C132.768,20.312 134.51,18.908 134.51,16.1 C134.51,14.8173333 134.215333,13.89 133.626,13.318 C133.036667,12.746 132.044333,12.3343333 130.649,12.083 C129.253667,11.8316667 128.387,11.641 128.049,11.511 C127.711,11.381 127.542,11.147 127.542,10.809 C127.542,10.471 127.667667,10.224 127.919,10.068 C128.170333,9.912 128.725,9.834 129.583,9.834 C130.441,9.834 131.944667,9.97266667 134.094,10.25 L134.094,10.25 L134.146,7.364 L133.288,7.208 C131.52,6.87866667 130.124667,6.714 129.102,6.714 C127.628667,6.714 126.424,7.065 125.488,7.767 C124.552,8.469 124.084,9.509 124.084,10.887 C124.084,12.265 124.413333,13.2226667 125.072,13.76 C125.730667,14.2973333 126.731667,14.6786667 128.075,14.904 C129.418333,15.1293333 130.250333,15.32 130.571,15.476 C130.891667,15.632 131.052,15.8746667 131.052,16.204 C131.052,16.5333333 130.900333,16.7803333 130.597,16.945 C130.293667,17.1096667 129.721667,17.192 128.881,17.192 C128.040333,17.192 126.545333,17.0533333 124.396,16.776 L124.396,16.776 L124.292,19.688 L125.124,19.844 C126.753333,20.156 128.14,20.312 129.284,20.312 Z M141.608,20.312 C142.214667,20.312 143.098667,20.182 144.26,19.922 L144.26,19.922 L144.104,17.14 L142.128,17.192 C141.781333,17.192 141.525667,17.114 141.361,16.958 C141.196333,16.802 141.101,16.6156667 141.075,16.399 C141.049,16.1823333 141.036,15.814 141.036,15.294 L141.036,9.964 L144.234,9.964 L144.234,7 L141.036,7 L141.036,3.386 L137.552,3.386 L137.552,7 L136.018,7 L136.018,9.964 L137.552,9.964 L137.552,15.372 C137.552,17.2613333 137.838,18.557 138.41,19.259 C138.982,19.961 140.048,20.312 141.608,20.312 Z" id="Groundlist" fill="#393939" fill-rule="nonzero"></path>
        <g id="Group" transform="translate(3.000000, 4.000000)" fill="#AC2421" fill-rule="nonzero">
            <path d="M3,12.375 L3,14.625 C3,14.7265625 2.96289062,14.8144531 2.88867188,14.8886719 C2.81445312,14.9628906 2.7265625,15 2.625,15 L0.375,15 C0.2734375,15 0.185546875,14.9628906 0.111328125,14.8886719 C0.037109375,14.8144531 0,14.7265625 0,14.625 L0,12.375 C0,12.2734375 0.037109375,12.1855469 0.111328125,12.1113281 C0.185546875,12.0371094 0.2734375,12 0.375,12 L2.625,12 C2.7265625,12 2.81445312,12.0371094 2.88867188,12.1113281 C2.96289062,12.1855469 3,12.2734375 3,12.375 Z" id="Path"></path>
            <path d="M3,8.375 L3,10.625 C3,10.7265625 2.96289062,10.8144531 2.88867188,10.8886719 C2.81445312,10.9628906 2.7265625,11 2.625,11 L0.375,11 C0.2734375,11 0.185546875,10.9628906 0.111328125,10.8886719 C0.037109375,10.8144531 0,10.7265625 0,10.625 L0,8.375 C0,8.2734375 0.037109375,8.18554688 0.111328125,8.11132812 C0.185546875,8.03710938 0.2734375,8 0.375,8 L2.625,8 C2.7265625,8 2.81445312,8.03710938 2.88867188,8.11132812 C2.96289062,8.18554688 3,8.2734375 3,8.375 Z" id="Path"></path>
            <path d="M3,4.375 L3,6.625 C3,6.7265625 2.96289062,6.81445312 2.88867188,6.88867188 C2.81445312,6.96289062 2.7265625,7 2.625,7 L0.375,7 C0.2734375,7 0.185546875,6.96289062 0.111328125,6.88867188 C0.037109375,6.81445312 0,6.7265625 0,6.625 L0,4.375 C0,4.2734375 0.037109375,4.18554688 0.111328125,4.11132812 C0.185546875,4.03710938 0.2734375,4 0.375,4 L2.625,4 C2.7265625,4 2.81445312,4.03710938 2.88867188,4.11132812 C2.96289062,4.18554688 3,4.2734375 3,4.375 Z" id="Path"></path>
            <path d="M20,12.375 L20,14.625 C20,14.7265625 19.9640152,14.8144531 19.8920455,14.8886719 C19.8200758,14.9628906 19.7348485,15 19.6363636,15 L4.36363636,15 C4.26515152,15 4.17992424,14.9628906 4.10795455,14.8886719 C4.03598485,14.8144531 4,14.7265625 4,14.625 L4,12.375 C4,12.2734375 4.03598485,12.1855469 4.10795455,12.1113281 C4.17992424,12.0371094 4.26515152,12 4.36363636,12 L19.6363636,12 C19.7348485,12 19.8200758,12.0371094 19.8920455,12.1113281 C19.9640152,12.1855469 20,12.2734375 20,12.375 Z" id="Path"></path>
            <path d="M3,0.375 L3,2.625 C3,2.7265625 2.96289062,2.81445312 2.88867188,2.88867188 C2.81445312,2.96289062 2.7265625,3 2.625,3 L0.375,3 C0.2734375,3 0.185546875,2.96289062 0.111328125,2.88867188 C0.037109375,2.81445312 0,2.7265625 0,2.625 L0,0.375 C0,0.2734375 0.037109375,0.185546875 0.111328125,0.111328125 C0.185546875,0.037109375 0.2734375,0 0.375,0 L2.625,0 C2.7265625,0 2.81445312,0.037109375 2.88867188,0.111328125 C2.96289062,0.185546875 3,0.2734375 3,0.375 Z" id="Path"></path>
            <path d="M20,8.375 L20,10.625 C20,10.7265625 19.9640152,10.8144531 19.8920455,10.8886719 C19.8200758,10.9628906 19.7348485,11 19.6363636,11 L4.36363636,11 C4.26515152,11 4.17992424,10.9628906 4.10795455,10.8886719 C4.03598485,10.8144531 4,10.7265625 4,10.625 L4,8.375 C4,8.2734375 4.03598485,8.18554688 4.10795455,8.11132812 C4.17992424,8.03710938 4.26515152,8 4.36363636,8 L19.6363636,8 C19.7348485,8 19.8200758,8.03710938 19.8920455,8.11132812 C19.9640152,8.18554688 20,8.2734375 20,8.375 Z" id="Path"></path>
            <path d="M20,4.375 L20,6.625 C20,6.7265625 19.9640152,6.81445312 19.8920455,6.88867188 C19.8200758,6.96289062 19.7348485,7 19.6363636,7 L4.36363636,7 C4.26515152,7 4.17992424,6.96289062 4.10795455,6.88867188 C4.03598485,6.81445312 4,6.7265625 4,6.625 L4,4.375 C4,4.2734375 4.03598485,4.18554688 4.10795455,4.11132812 C4.17992424,4.03710938 4.26515152,4 4.36363636,4 L19.6363636,4 C19.7348485,4 19.8200758,4.03710938 19.8920455,4.11132812 C19.9640152,4.18554688 20,4.2734375 20,4.375 Z" id="Path"></path>
            <path d="M20,0.375 L20,2.625 C20,2.7265625 19.9640152,2.81445312 19.8920455,2.88867188 C19.8200758,2.96289062 19.7348485,3 19.6363636,3 L4.36363636,3 C4.26515152,3 4.17992424,2.96289062 4.10795455,2.88867188 C4.03598485,2.81445312 4,2.7265625 4,2.625 L4,0.375 C4,0.2734375 4.03598485,0.185546875 4.10795455,0.111328125 C4.17992424,0.037109375 4.26515152,0 4.36363636,0 L19.6363636,0 C19.7348485,0 19.8200758,0.037109375 19.8920455,0.111328125 C19.9640152,0.185546875 20,0.2734375 20,0.375 Z" id="Path"></path>
        </g>
    </g>
</svg>