<?xml version="1.0" standalone="no"?>
<!DOCTYPE svg PUBLIC "-//W3C//DTD SVG 20010904//EN"
 "http://www.w3.org/TR/2001/REC-SVG-20010904/DTD/svg10.dtd">
<svg version="1.0" xmlns="http://www.w3.org/2000/svg"
 width="1280.000000pt" height="1280.000000pt" viewBox="0 0 1280.000000 1280.000000"
 preserveAspectRatio="xMidYMid meet">
<metadata>
Created by potrace 1.11, written by Peter Selinger 2001-2013
</metadata>
<g transform="translate(0.000000,1280.000000) scale(0.100000,-0.100000)"
fill="#000000" stroke="none">
<path d="M160 11187 c-52 -17 -134 -102 -149 -157 -9 -34 -11 -228 -9 -815 3
-741 4 -771 22 -800 71 -111 144 -143 299 -133 26 2 47 0 47 -4 0 -4 13 -3 30
2 16 5 30 6 30 2 0 -4 16 -7 35 -7 19 0 35 3 35 7 0 4 14 3 30 -2 17 -5 30 -5
30 0 0 5 6 7 14 4 20 -8 116 -10 116 -3 0 4 16 3 35 -1 19 -4 35 -4 35 0 0 4
18 4 40 0 22 -4 40 -4 40 0 0 4 16 4 35 0 19 -4 35 -5 35 -1 0 7 96 5 116 -3
8 -3 14 -1 14 4 0 5 13 5 30 0 17 -5 30 -5 30 0 0 5 13 5 30 0 17 -5 30 -5 30
0 0 5 13 5 30 0 17 -5 30 -5 30 0 0 5 13 5 30 0 17 -5 30 -5 30 0 0 5 13 5 30
0 17 -5 30 -5 30 0 0 5 13 5 30 0 17 -5 30 -5 30 0 0 5 13 5 30 0 17 -5 30 -5
30 0 0 5 13 5 30 0 19 -5 30 -5 30 1 0 6 5 7 11 4 11 -7 133 -8 184 -1 17 2
42 9 57 15 35 13 119 90 112 102 -3 5 -1 9 5 9 14 0 28 56 27 103 -1 20 2 37
6 37 4 0 3 11 -2 25 -6 15 -6 27 0 30 6 3 6 15 0 30 -5 14 -5 27 0 30 5 3 5
18 0 35 -5 17 -5 30 0 30 5 0 5 13 0 30 -5 17 -5 30 0 30 5 0 5 13 0 30 -5 17
-5 30 0 30 5 0 5 13 0 30 -5 17 -5 30 0 30 5 0 5 13 0 30 -5 17 -5 30 0 30 5
0 5 13 0 30 -5 17 -5 30 0 30 5 0 5 13 0 29 -4 15 -4 34 0 42 5 7 5 20 0 29
-4 8 -4 22 0 31 5 8 5 21 1 28 -5 7 -5 30 -1 51 4 21 4 44 -1 51 -4 7 -3 21 2
30 6 11 5 20 -1 24 -5 3 -6 15 -1 28 5 12 5 34 0 49 -4 16 -4 28 1 28 5 0 5
13 0 30 -5 17 -5 30 0 30 5 0 5 13 0 30 -5 17 -5 30 0 30 5 0 5 13 0 30 -5 17
-5 30 0 30 5 0 5 13 0 30 -5 17 -5 30 0 30 5 0 5 13 0 30 -5 17 -5 30 0 30 5
0 5 13 0 30 -5 17 -6 30 -2 30 4 0 5 37 4 82 -6 130 -7 138 -14 138 -5 0 -8 3
-7 8 2 15 -14 52 -22 52 -5 0 -9 7 -9 15 0 8 -3 15 -8 15 -4 0 -20 12 -36 26
-58 54 -57 54 -875 53 -524 -1 -767 -4 -791 -12z"/>
<path d="M2717 11186 c-47 -17 -122 -82 -126 -109 0 -4 -7 -20 -14 -35 -10
-18 -15 -72 -16 -166 -1 -76 -4 -143 -7 -147 -2 -4 -1 -10 3 -12 5 -3 6 -40 3
-82 -3 -42 -3 -78 0 -80 3 -2 3 -38 0 -80 -3 -42 -2 -79 3 -82 4 -2 5 -8 2
-14 -5 -7 -7 -159 -4 -269 1 -8 1 -46 0 -85 0 -38 0 -79 0 -90 0 -11 0 -110 0
-220 0 -110 1 -215 3 -232 10 -97 109 -195 198 -198 21 -1 40 -4 43 -7 4 -3
20 -2 36 2 16 5 29 5 29 0 0 -5 13 -5 30 0 17 5 30 5 30 0 0 -5 13 -5 30 0 17
5 30 6 30 2 0 -4 16 -7 35 -7 19 0 35 3 35 7 0 4 14 3 30 -2 17 -5 30 -5 30 0
0 5 6 7 14 4 20 -8 116 -10 116 -3 0 4 16 3 35 -1 19 -4 35 -4 35 0 0 4 18 4
40 0 22 -4 40 -4 40 0 0 4 16 4 35 0 19 -4 35 -5 35 -1 0 7 96 5 116 -3 8 -3
14 -1 14 4 0 5 13 5 30 0 17 -5 30 -5 30 0 0 5 13 5 30 0 17 -5 30 -5 30 0 0
5 13 5 30 0 17 -5 30 -5 30 0 0 5 13 5 30 0 17 -5 30 -5 30 0 0 5 13 5 30 0
17 -5 30 -5 30 0 0 5 13 5 30 0 17 -5 30 -5 30 0 0 5 13 5 30 0 17 -5 30 -5
30 0 0 5 13 5 30 0 17 -5 30 -5 30 0 0 5 6 7 14 4 20 -8 116 -10 116 -3 0 4
16 3 35 -1 19 -4 35 -4 35 0 0 4 18 4 40 0 22 -4 40 -4 40 0 0 4 16 4 35 0 19
-4 35 -5 35 -1 0 7 109 5 117 -3 3 -3 13 -1 22 4 10 5 23 5 31 0 8 -5 21 -5
30 0 9 5 22 5 30 0 7 -4 24 -4 36 0 14 6 26 5 29 0 3 -5 18 -5 35 0 17 5 30 5
30 0 0 -5 13 -5 30 0 17 5 30 5 30 0 0 -5 13 -5 30 0 16 5 30 6 30 2 0 -4 16
-7 35 -7 19 0 35 3 35 7 0 4 14 3 30 -2 17 -5 30 -5 30 0 0 5 6 7 14 4 20 -8
116 -10 116 -3 0 4 16 3 35 -1 19 -4 35 -4 35 0 0 4 18 4 40 0 22 -4 40 -4 40
0 0 4 16 4 35 0 19 -4 35 -5 35 -1 0 7 96 5 116 -3 8 -3 14 -1 14 4 0 5 13 5
30 0 17 -5 30 -5 30 0 0 5 13 5 30 0 17 -5 30 -5 30 0 0 5 13 5 30 0 17 -5 30
-5 30 0 0 5 13 5 30 0 17 -5 30 -5 30 0 0 5 13 5 30 0 17 -5 30 -5 30 0 0 5
13 5 30 0 17 -5 30 -5 30 0 0 5 13 5 30 0 17 -5 30 -5 30 0 0 5 13 5 30 0 17
-5 30 -5 30 0 0 5 6 7 14 4 20 -8 116 -10 116 -3 0 4 16 3 35 -1 19 -4 35 -4
35 0 0 4 18 4 40 0 22 -4 40 -4 40 0 0 4 16 4 35 0 19 -4 35 -5 35 -1 0 4 23
5 50 1 28 -4 50 -3 50 1 0 4 16 3 35 -1 19 -4 35 -4 35 0 0 4 18 4 40 0 22 -4
40 -4 40 0 0 4 16 4 35 0 19 -4 35 -5 35 -1 0 7 96 5 116 -3 8 -3 14 -1 14 4
0 5 13 5 30 0 17 -5 30 -5 30 0 0 5 13 5 30 0 17 -5 30 -5 30 0 0 5 13 5 30 0
17 -5 30 -5 30 0 0 5 13 5 30 0 17 -5 30 -5 30 0 0 5 13 5 30 0 17 -5 30 -5
30 0 0 5 13 5 30 0 17 -5 30 -5 30 0 0 5 13 5 30 0 17 -5 30 -5 30 0 0 5 13 5
30 0 17 -5 30 -5 30 0 0 5 6 7 14 4 20 -8 116 -10 116 -3 0 4 16 3 35 -1 19
-4 35 -4 35 0 0 4 18 4 40 0 22 -4 40 -4 40 0 0 4 16 4 35 0 19 -4 35 -5 35
-1 0 7 96 5 116 -3 8 -3 14 -1 14 3 0 5 15 6 33 2 17 -4 47 -4 65 0 17 3 32 3
32 -2 0 -4 14 -4 30 1 17 5 30 5 30 0 0 -5 13 -5 30 0 17 5 30 5 30 0 0 -5 13
-5 30 0 17 5 32 5 35 0 3 -5 15 -6 29 0 12 4 29 4 36 0 8 -5 21 -5 30 0 9 5
22 5 30 0 8 -5 21 -5 30 0 9 5 22 5 29 1 7 -5 29 -5 49 -1 21 3 49 3 65 -1 15
-4 27 -4 27 1 0 4 15 5 33 1 17 -4 47 -4 65 0 17 3 32 3 32 -2 0 -4 14 -4 30
1 17 5 30 5 30 0 0 -5 13 -5 30 0 17 5 30 5 30 0 0 -5 13 -5 30 0 17 5 32 5
35 0 3 -5 15 -6 29 0 12 4 29 4 36 0 8 -5 21 -5 30 0 9 5 22 5 30 0 8 -5 21
-5 30 0 9 5 22 5 28 1 7 -4 35 -5 62 -1 27 4 55 3 62 -1 6 -4 19 -4 28 1 9 5
22 5 30 0 8 -5 21 -5 30 0 9 5 22 5 30 0 7 -4 24 -4 36 0 14 6 26 5 29 0 3 -5
18 -5 35 0 17 5 30 5 30 0 0 -5 13 -5 30 0 17 5 30 5 30 0 0 -5 13 -5 30 0 16
5 30 6 30 2 0 -4 16 -7 35 -7 19 0 35 3 35 7 0 4 14 3 30 -2 17 -5 30 -5 30 0
0 5 6 7 14 4 20 -8 116 -10 116 -3 0 4 16 3 35 -1 19 -4 35 -4 35 0 0 4 18 4
40 0 22 -4 40 -4 40 0 0 4 16 4 35 0 19 -4 35 -5 35 -1 0 7 96 5 116 -3 8 -3
14 -1 14 4 0 5 13 5 30 0 17 -5 30 -5 30 0 0 5 13 5 30 0 17 -5 30 -5 30 0 0
5 13 5 30 0 17 -5 30 -5 30 0 0 5 13 5 30 0 17 -5 30 -5 30 0 0 5 13 5 30 0
17 -5 30 -5 30 0 0 5 13 5 30 0 17 -5 30 -5 30 0 0 5 13 5 30 0 17 -5 30 -5
30 0 0 5 13 5 30 0 17 -5 30 -5 30 0 0 5 6 7 14 4 20 -8 116 -10 116 -3 0 4
16 3 35 -1 19 -4 35 -4 35 0 0 4 18 4 40 0 22 -4 40 -4 40 0 0 4 16 4 35 0 19
-4 35 -5 35 -1 0 7 109 5 117 -3 3 -3 13 -1 22 4 10 5 23 5 31 0 8 -5 21 -5
30 0 9 5 22 5 30 0 7 -4 24 -4 36 0 14 6 26 5 29 0 3 -5 18 -5 35 0 17 5 30 5
30 0 0 -5 13 -5 30 0 17 5 30 5 30 0 0 -5 13 -5 30 0 17 5 30 6 30 2 0 -4 16
-7 35 -7 19 0 35 3 35 7 0 4 14 3 30 -2 17 -5 30 -5 30 0 0 5 12 5 28 1 15 -4
38 -5 52 -1 14 4 37 3 53 -1 15 -4 27 -4 27 1 0 4 15 5 33 1 17 -4 47 -4 65 0
17 3 32 3 32 -2 0 -4 14 -4 30 1 17 5 30 5 30 0 0 -5 13 -5 30 0 17 5 30 5 30
0 0 -5 13 -5 30 0 17 5 32 5 35 0 3 -5 15 -6 29 0 12 4 29 4 36 0 8 -5 21 -5
30 0 9 5 22 5 30 0 8 -5 21 -5 30 0 9 5 22 5 29 1 7 -5 29 -5 49 -1 21 3 49 3
65 -1 15 -4 27 -4 27 1 0 4 15 5 33 1 17 -4 47 -4 65 0 17 3 32 3 32 -2 0 -4
14 -4 30 1 17 5 30 5 30 0 0 -5 13 -5 30 0 17 5 30 5 30 0 0 -4 16 -4 35 0 21
5 35 4 35 -2 0 -5 4 -7 8 -4 5 3 19 7 33 9 81 15 158 80 183 155 23 67 24
1522 1 1598 -15 52 -66 113 -119 142 -29 16 -362 17 -4971 19 -4149 2 -4946 0
-4978 -11z"/>
<path d="M297 8644 c-1 -1 -29 -4 -62 -7 -83 -7 -127 -28 -174 -81 -60 -68
-56 -11 -56 -871 0 -741 1 -792 18 -826 43 -87 133 -142 227 -140 109 3 173 2
177 -2 2 -3 17 -2 31 2 15 5 36 5 47 1 11 -4 29 -4 40 0 11 4 31 4 45 0 14 -3
42 -3 62 0 20 4 42 4 48 0 7 -4 27 -4 46 0 19 4 36 4 39 0 3 -4 20 -4 39 0 19
4 37 5 40 3 7 -8 153 -6 166 2 5 3 10 2 10 -3 0 -5 17 -6 40 -2 22 4 40 4 40
0 0 -4 18 -4 40 0 22 4 40 4 40 0 0 -4 18 -4 40 0 22 4 40 4 40 0 0 -4 18 -4
40 0 22 4 40 4 40 0 0 -4 18 -4 40 0 22 4 40 4 40 0 0 -4 18 -4 40 0 22 4 40
4 40 -1 0 -5 6 -6 14 -3 7 3 58 6 112 8 102 3 144 11 144 28 0 5 4 7 9 4 11
-7 88 76 100 107 5 13 12 41 15 61 4 21 9 42 11 46 3 5 1 11 -5 15 -6 4 -8 11
-5 16 9 13 11 99 3 99 -4 0 -3 14 2 30 5 17 5 30 0 30 -5 0 -5 13 0 29 4 15 4
34 0 42 -5 7 -5 20 0 29 5 9 5 22 0 30 -5 8 -5 21 0 30 5 9 5 22 0 30 -5 8 -5
21 0 30 5 9 5 22 0 30 -5 8 -5 21 0 30 5 9 5 22 0 30 -5 8 -5 21 0 30 5 9 5
22 0 30 -5 8 -5 21 0 30 5 9 5 22 0 30 -5 8 -5 21 0 30 5 9 5 22 0 30 -5 8 -5
21 0 30 5 9 5 22 0 30 -5 8 -5 21 0 30 5 9 5 22 0 30 -5 8 -5 21 0 30 5 9 5
22 0 30 -5 8 -5 21 0 30 5 9 5 22 0 30 -5 8 -5 21 0 30 5 9 5 22 0 30 -5 8 -5
21 0 30 5 9 5 22 0 30 -5 8 -5 21 0 30 5 9 5 22 0 30 -5 8 -5 21 0 30 5 9 5
22 0 29 -4 8 -4 27 0 42 5 16 5 29 0 29 -5 0 -5 13 0 30 5 17 6 30 2 30 -4 0
-7 23 -7 50 0 28 3 50 7 50 4 0 5 6 2 13 -2 7 -6 28 -8 47 -7 59 -14 79 -42
119 -55 75 -110 98 -251 100 -121 2 -1324 7 -1326 5z"/>
<path d="M2847 8644 c-1 -1 -30 -4 -64 -7 -34 -4 -75 -13 -90 -21 -38 -19 -89
-71 -109 -109 -14 -26 -26 -124 -25 -197 0 -8 0 -64 0 -125 -1 -60 0 -121 1
-135 1 -14 2 -29 2 -35 -1 -31 -1 -462 -1 -475 0 -8 0 -116 0 -240 -1 -344 0
-380 15 -424 15 -42 57 -94 100 -123 27 -17 134 -45 134 -35 0 4 30 6 67 5
140 -5 154 -5 160 0 3 3 15 2 27 -2 11 -5 30 -5 41 -1 11 4 31 4 45 0 14 -3
41 -3 62 0 20 4 42 4 48 0 7 -4 27 -4 46 0 19 4 36 4 39 0 3 -4 20 -4 39 0 19
4 37 5 40 3 7 -8 153 -6 166 2 5 3 10 2 10 -3 0 -5 17 -6 40 -2 22 4 40 4 40
0 0 -4 18 -4 40 0 22 4 40 4 40 0 0 -4 18 -4 40 0 22 4 40 4 40 0 0 -4 18 -4
40 0 22 4 40 4 40 0 0 -4 18 -4 40 0 22 4 40 4 40 0 0 -4 18 -4 40 0 23 4 40
3 40 -2 0 -5 5 -6 10 -3 13 8 169 9 176 2 3 -3 18 -2 32 2 15 5 36 5 47 1 11
-4 29 -4 40 0 11 4 31 4 45 0 14 -3 42 -3 62 0 20 4 42 4 48 0 7 -4 27 -4 46
0 19 4 36 4 39 0 3 -4 20 -4 39 0 19 4 37 5 40 3 7 -8 153 -6 166 2 5 3 10 2
10 -3 0 -5 17 -6 40 -2 22 4 40 4 40 0 0 -4 18 -4 40 0 22 4 40 4 40 0 0 -4
19 -4 41 0 23 4 54 4 69 0 15 -4 33 -4 41 0 7 5 16 7 21 4 7 -5 98 -6 220 -4
37 1 72 -1 78 -5 5 -3 10 -1 10 5 0 6 5 8 10 5 6 -4 39 -6 73 -5 34 1 69 1 77
1 71 -3 142 -1 150 4 6 3 10 2 10 -3 0 -5 17 -6 40 -2 22 4 40 4 40 0 0 -4 18
-4 40 0 23 4 40 3 40 -2 0 -5 5 -6 10 -3 13 8 169 9 176 2 3 -3 18 -2 32 2 15
5 36 5 47 1 11 -4 29 -4 40 0 11 4 31 4 45 0 14 -3 42 -3 62 0 20 4 42 4 48 0
7 -4 27 -4 46 0 19 4 36 4 39 0 3 -4 20 -4 39 0 19 4 37 5 40 3 7 -8 153 -6
166 2 5 3 10 2 10 -3 0 -5 17 -6 40 -2 22 4 40 4 40 0 0 -4 18 -4 40 0 22 4
40 4 40 0 0 -4 19 -4 41 0 23 4 54 4 69 0 15 -4 33 -4 41 0 7 5 16 7 21 4 7
-5 98 -6 220 -4 37 1 72 -1 78 -5 5 -3 10 -2 10 3 0 5 17 6 38 3 20 -4 55 -4
78 -1 22 4 49 4 58 0 10 -3 42 -3 71 0 29 3 61 3 71 0 10 -4 34 -4 53 0 20 3
53 3 74 0 20 -4 37 -3 37 2 0 5 4 6 10 3 5 -3 44 -6 87 -6 154 0 198 0 216 1
63 1 132 1 152 0 23 -1 24 -1 100 0 30 1 59 -1 65 -5 5 -3 10 -1 10 5 0 6 4 8
10 5 9 -6 94 -7 227 -5 34 1 66 -1 71 -4 4 -2 14 -1 21 4 8 4 27 4 42 0 16 -5
29 -5 29 0 0 5 13 5 29 0 15 -4 34 -4 42 0 7 5 16 7 21 4 7 -5 98 -6 220 -4
37 1 72 -1 78 -5 5 -3 10 -1 10 5 0 6 5 8 10 5 6 -4 39 -6 73 -5 34 1 69 1 77
1 71 -3 142 -1 150 4 6 3 10 2 10 -3 0 -5 17 -6 40 -2 22 4 40 4 40 0 0 -4 18
-4 40 0 23 4 40 3 40 -2 0 -5 5 -6 10 -3 13 8 169 9 176 2 3 -3 18 -2 32 2 15
5 36 5 47 1 11 -4 29 -4 40 0 11 4 31 4 45 0 14 -3 42 -3 62 0 20 4 42 4 48 0
7 -4 27 -4 46 0 19 4 36 4 39 0 3 -4 20 -4 39 0 19 4 37 5 40 3 7 -8 153 -6
166 2 5 3 10 2 10 -3 0 -5 17 -6 40 -2 22 4 40 4 40 0 0 -4 18 -4 40 0 22 4
40 4 40 0 0 -4 19 -4 41 0 23 4 54 4 69 0 15 -4 33 -4 41 0 7 5 16 7 21 4 7
-5 98 -6 220 -4 37 1 72 -1 78 -5 5 -3 10 -2 10 3 0 5 17 6 38 3 20 -4 55 -4
78 -1 22 4 49 4 58 0 10 -3 42 -3 71 0 29 3 61 3 71 0 10 -4 34 -4 53 0 20 3
53 3 74 0 20 -4 37 -3 37 2 0 5 4 6 10 3 5 -3 44 -6 87 -6 154 0 198 0 216 1
63 1 132 1 152 0 23 -1 24 -1 100 0 30 1 59 -1 65 -5 5 -3 10 -2 10 3 0 5 17
6 39 2 22 -4 45 -4 51 0 7 4 27 4 45 0 18 -4 39 -4 46 1 7 4 16 6 20 3 18 -11
142 62 139 82 -1 3 6 11 14 17 9 7 22 32 31 56 13 37 15 147 15 795 0 839 1
819 -66 889 -45 46 -75 63 -129 71 -22 4 -319 7 -660 6 -341 -1 -627 -1 -635
-1 -8 0 -440 0 -960 0 -520 0 -952 0 -960 0 -11 0 -1831 0 -1920 0 -864 -1
-1911 0 -1930 1 -36 1 -2691 5 -2693 4z"/>
<path d="M247 6083 c-1 0 -18 -4 -37 -7 -90 -14 -174 -84 -198 -164 -9 -29
-12 -244 -12 -790 0 -662 2 -757 16 -799 28 -83 105 -147 190 -158 61 -8 182
-7 195 0 5 4 9 2 9 -3 0 -4 21 -6 48 -3 26 4 63 4 82 1 19 -3 77 -3 127 0 51
3 93 1 93 -3 0 -5 4 -6 8 -3 9 5 68 7 182 6 41 -1 80 -1 85 0 6 1 46 1 90 0
44 -1 85 -1 90 -1 24 -1 202 0 220 0 11 0 40 0 65 0 25 0 52 0 60 0 34 1 120
1 127 0 5 -1 10 -1 13 1 3 1 14 3 25 5 47 9 94 36 129 75 46 51 58 80 62 150
2 30 4 55 4 55 1 0 2 17 3 38 1 20 -1 37 -5 37 -4 0 -3 14 2 30 5 17 5 30 0
30 -5 0 -5 13 0 30 5 17 5 30 0 30 -5 0 -5 13 0 30 5 17 5 30 0 30 -5 0 -5 13
0 30 5 17 5 30 0 30 -5 0 -5 13 0 30 5 17 5 30 0 30 -5 0 -5 13 0 30 5 17 5
30 0 30 -5 0 -5 13 0 30 5 17 5 30 0 30 -5 0 -5 13 0 30 5 17 5 30 0 30 -5 0
-5 13 0 30 5 17 5 30 1 30 -4 0 -4 27 -1 60 3 33 3 60 -1 60 -4 0 -4 14 1 30
5 17 5 30 0 30 -5 0 -5 13 0 30 5 17 5 30 0 30 -5 0 -5 13 0 30 5 17 5 30 0
30 -5 0 -5 13 0 30 5 17 5 30 0 30 -5 0 -5 13 0 30 5 17 5 30 0 30 -5 0 -5 13
0 30 5 17 5 30 0 30 -5 0 -5 13 0 30 5 17 5 30 0 30 -5 0 -5 13 0 30 5 17 5
30 0 30 -5 0 -5 13 0 30 5 17 5 30 0 30 -5 0 -5 13 0 30 5 18 5 30 0 30 -6 0
-6 10 0 24 5 13 6 26 4 29 -3 3 -7 22 -10 43 -12 98 -93 183 -189 199 -51 8
-282 8 -295 0 -6 -3 -10 -3 -10 2 0 6 -441 9 -590 3 -39 -1 -161 -2 -205 -1
-106 3 -377 6 -378 4z"/>
<path d="M2808 6085 c-2 -2 -22 -5 -45 -9 -50 -6 -88 -25 -123 -59 -33 -32
-61 -67 -55 -67 3 0 -1 -12 -8 -27 -8 -16 -15 -50 -15 -78 -1 -76 -2 -208 -1
-230 4 -201 -1 -636 -7 -646 -2 -4 -1 -10 3 -12 5 -3 6 -40 3 -82 -3 -42 -3
-78 0 -80 3 -2 3 -38 0 -80 -3 -42 -2 -79 3 -82 4 -2 5 -8 2 -12 -6 -10 -7
-147 -2 -231 5 -73 23 -113 70 -160 65 -65 110 -74 342 -69 23 0 272 1 295 0
126 -2 183 -1 190 4 6 4 10 2 10 -2 0 -5 27 -6 60 -3 33 3 65 3 70 0 5 -3 37
-3 70 0 33 3 60 3 60 0 0 -3 52 -3 115 0 63 3 115 1 115 -3 0 -5 4 -6 8 -3 9
5 68 7 182 6 41 -1 80 -1 85 0 6 1 37 1 70 1 171 -2 278 0 286 5 5 3 9 0 9 -6
0 -6 4 -9 8 -6 9 5 68 7 182 6 41 -1 80 -1 85 0 6 1 35 1 65 1 68 0 248 -1
275 0 48 1 331 1 345 0 8 -1 33 -1 55 0 22 0 47 0 55 0 61 -2 164 0 171 5 5 3
9 0 9 -6 0 -6 4 -9 8 -6 9 5 50 7 200 7 56 0 108 0 115 0 6 0 77 0 157 0 80 0
154 0 165 0 57 1 332 1 345 0 8 -1 33 -1 55 0 22 0 47 0 55 0 61 -2 164 0 171
5 5 3 9 0 9 -6 0 -6 4 -9 8 -6 9 5 50 7 200 7 56 0 110 0 120 0 9 0 86 0 170
0 85 -1 158 1 163 5 5 3 9 0 9 -6 0 -6 4 -9 8 -6 9 5 68 7 182 6 41 -1 80 -1
85 0 6 1 37 1 70 1 171 -2 278 0 286 5 5 3 9 0 9 -6 0 -6 4 -9 8 -6 9 5 68 7
182 6 41 -1 80 -1 85 0 6 1 37 1 70 1 33 -1 98 -1 145 0 47 0 92 1 100 0 110
-2 183 -1 190 4 6 4 10 2 10 -2 0 -5 27 -6 60 -3 33 3 65 3 70 0 5 -3 37 -3
70 0 33 3 60 3 60 0 0 -3 44 -4 97 -2 54 2 105 3 113 3 112 1 328 0 340 0 8
-1 33 -1 55 0 22 0 47 0 55 0 61 -2 164 0 171 5 5 3 9 0 9 -6 0 -6 4 -9 8 -6
9 5 50 7 200 7 56 0 110 0 120 0 35 0 277 1 292 0 126 -2 183 -1 190 4 6 4 10
2 10 -2 0 -5 27 -6 60 -3 33 3 65 3 70 0 5 -3 37 -3 70 0 33 3 60 3 60 0 0 -3
52 -3 115 0 63 3 115 1 115 -3 0 -5 4 -6 8 -3 9 5 68 7 182 6 41 -1 80 -1 85
0 6 1 37 1 70 1 171 -2 278 0 286 5 5 3 9 0 9 -6 0 -6 4 -9 8 -6 9 5 56 7 197
6 102 0 128 3 169 19 31 12 87 56 86 67 -1 3 6 11 14 17 9 7 22 32 31 56 13
37 15 147 15 795 0 839 1 819 -66 889 -66 68 -110 80 -281 78 -51 -1 -101 -2
-110 -2 -20 0 -342 0 -358 0 -18 0 -459 0 -475 0 -8 0 -44 0 -80 0 -36 1 -72
1 -80 0 -8 0 -44 0 -80 0 -36 1 -72 0 -80 0 -8 0 -42 1 -75 1 -33 1 -64 1 -70
0 -5 -1 -14 -1 -20 0 -5 1 -68 1 -140 1 -71 -1 -139 -1 -150 -1 -32 0 -149 -1
-160 -1 -5 -1 -47 0 -92 1 -45 1 -86 -1 -92 -5 -6 -3 -11 -3 -11 2 0 6 -441 9
-590 3 -37 -1 -166 -1 -280 -1 -36 1 -72 1 -80 0 -8 0 -44 0 -80 0 -36 1 -72
0 -80 0 -8 0 -42 1 -75 1 -33 1 -64 1 -70 0 -5 -1 -14 -1 -20 0 -5 1 -77 1
-160 0 -82 0 -157 -1 -165 -1 -8 0 -152 0 -320 0 -168 0 -309 0 -315 0 -5 0
-140 0 -300 0 -159 0 -299 1 -310 1 -32 0 -149 -1 -160 -1 -5 -1 -47 0 -92 1
-45 1 -86 -1 -92 -5 -6 -3 -11 -3 -11 2 0 6 -441 9 -590 3 -26 -1 -153 -1
-180 -1 -8 1 -44 1 -80 0 -36 0 -72 0 -80 0 -18 1 -141 0 -155 0 -5 -1 -47 0
-92 1 -45 1 -86 -1 -92 -5 -6 -3 -11 -3 -11 2 0 6 -441 9 -590 3 -37 -1 -166
-1 -280 -1 -36 1 -72 1 -80 0 -8 0 -44 0 -80 0 -36 1 -72 0 -80 0 -8 0 -42 1
-75 1 -33 1 -64 1 -70 0 -5 -1 -14 -1 -20 0 -5 1 -68 1 -140 1 -71 -1 -139 -1
-150 -1 -32 0 -149 -1 -160 -1 -5 -1 -47 0 -92 1 -45 1 -86 -1 -92 -5 -6 -3
-11 -3 -11 2 0 6 -441 9 -590 3 -39 -1 -161 -2 -205 -1 -207 5 -285 5 -285 0
0 -3 -20 -3 -45 1 -25 4 -46 6 -47 5z"/>
<path d="M245 3522 c-2 -2 -19 -5 -38 -7 -50 -4 -100 -31 -142 -76 -68 -74
-66 -40 -63 -900 l3 -774 26 -40 c39 -59 78 -91 132 -109 42 -14 137 -16 793
-16 520 0 759 3 790 11 47 12 149 93 138 110 -3 5 -1 9 5 9 14 0 28 56 27 103
-1 20 2 37 6 37 4 0 3 11 -2 25 -6 15 -6 27 0 30 6 3 6 15 0 30 -5 14 -5 27 0
30 5 3 5 18 0 35 -5 17 -5 30 0 30 5 0 5 13 0 30 -5 17 -5 30 0 30 5 0 5 13 0
30 -5 17 -5 30 0 30 5 0 5 13 0 30 -5 17 -5 30 0 30 5 0 5 13 0 30 -5 17 -5
30 0 30 5 0 5 13 0 30 -5 17 -5 30 0 30 5 0 5 13 0 29 -4 15 -4 34 0 42 5 7 5
20 0 29 -4 8 -4 22 0 31 5 8 5 21 1 28 -5 7 -5 30 -1 51 4 21 4 44 -1 51 -4 7
-3 21 2 30 6 11 5 20 -1 24 -5 3 -6 15 -1 28 5 12 5 34 0 49 -4 16 -4 28 1 28
5 0 5 13 0 30 -5 17 -5 30 0 30 5 0 5 13 0 30 -5 17 -5 30 0 30 5 0 5 13 0 30
-5 17 -5 30 0 30 5 0 5 13 0 30 -5 17 -5 30 0 30 5 0 5 13 0 30 -5 17 -5 30 0
30 5 0 5 13 0 30 -5 17 -6 30 -2 30 4 0 5 37 4 82 -6 130 -7 138 -14 138 -5 0
-8 3 -7 8 2 15 -14 52 -22 52 -5 0 -9 5 -9 11 0 13 -61 65 -72 62 -4 -2 -8 1
-8 6 0 9 -19 15 -84 27 -16 3 -33 7 -37 10 -4 2 -10 0 -14 -5 -3 -6 -13 -7
-22 -4 -15 6 -73 7 -90 3 -5 -1 -12 -1 -18 0 -5 1 -32 2 -60 2 -27 0 -54 -1
-60 -2 -5 -1 -14 -2 -20 0 -13 2 -198 2 -210 0 -6 -2 -13 -1 -17 0 -10 2 -86
2 -95 0 -5 -1 -12 -1 -18 0 -22 4 -152 3 -161 -2 -5 -3 -18 -2 -29 2 -11 4
-34 4 -52 0 -18 -4 -34 -5 -37 -2 -5 4 -208 6 -232 1 -5 -1 -12 0 -16 1 -5 1
-26 2 -48 2 -22 0 -43 -1 -47 -2 -5 -1 -12 -1 -18 0 -17 3 -157 5 -160 2z"/>
<path d="M2770 3518 c-55 -10 -100 -27 -100 -39 0 -5 -6 -9 -12 -9 -12 0 -69
-63 -68 -75 0 -3 -6 -18 -13 -33 -10 -18 -15 -72 -16 -166 -1 -76 -4 -143 -7
-147 -2 -4 -1 -10 3 -12 5 -3 6 -40 3 -82 -3 -42 -3 -78 0 -80 3 -2 3 -38 0
-80 -3 -42 -2 -79 3 -82 4 -2 5 -9 2 -14 -5 -7 -6 -71 -4 -304 0 -5 0 -37 0
-70 -1 -33 -1 -98 -1 -145 1 -47 0 -89 -1 -95 -1 -5 -1 -13 0 -17 0 -3 1 -66
2 -140 1 -83 7 -148 16 -174 15 -44 70 -106 117 -132 29 -16 363 -17 4976 -19
4800 -2 4946 -2 4985 16 22 10 49 27 60 38 31 31 65 73 60 73 -3 0 1 13 9 29
23 43 24 1521 1 1596 -24 84 -108 154 -190 160 -22 2 -42 4 -45 5 -13 4 -139
2 -146 -2 -5 -3 -18 -2 -29 2 -11 4 -34 4 -52 0 -18 -4 -34 -5 -37 -2 -5 4
-208 6 -232 1 -5 -1 -12 0 -16 1 -10 2 -86 2 -95 0 -5 -1 -12 -1 -18 0 -22 4
-152 3 -161 -2 -5 -3 -18 -2 -29 2 -11 4 -34 4 -52 0 -18 -4 -34 -5 -37 -3 -5
5 -259 7 -281 3 -5 -1 -14 -1 -20 0 -5 1 -28 1 -50 1 -22 -1 -44 -1 -50 -1 -5
0 -28 0 -50 1 -22 0 -44 0 -50 -1 -5 -1 -14 -1 -20 0 -13 3 -107 3 -120 0 -5
-1 -14 -1 -20 0 -8 1 -155 1 -200 -1 -5 0 -34 1 -63 3 -28 2 -52 0 -52 -4 0
-4 -12 -3 -27 1 -16 4 -39 5 -53 1 -14 -3 -41 -3 -60 0 -19 4 -47 3 -63 -1
-15 -4 -27 -4 -27 -1 0 6 -68 7 -95 2 -6 -2 -14 -1 -20 0 -13 2 -147 2 -160 0
-5 -1 -13 -1 -17 0 -10 2 -76 2 -85 0 -5 -1 -12 -1 -18 0 -8 2 -152 1 -215 -1
-8 0 -39 1 -68 3 -28 2 -52 0 -52 -4 0 -4 -13 -3 -29 2 -16 4 -32 6 -35 3 -3
-3 -27 -5 -53 -4 -69 3 -136 3 -148 1 -5 -1 -14 -1 -20 0 -5 1 -28 1 -50 1
-22 -1 -44 -1 -50 -1 -5 0 -28 0 -50 1 -22 0 -44 0 -50 -1 -5 -1 -14 -1 -20 0
-13 3 -107 3 -120 0 -5 -1 -14 -2 -20 0 -13 2 -198 2 -210 0 -6 -2 -13 -1 -17
0 -5 1 -26 2 -48 2 -22 0 -43 -1 -47 -2 -5 -1 -12 -1 -18 0 -22 4 -152 3 -161
-2 -5 -3 -18 -2 -29 2 -11 4 -34 4 -52 0 -18 -4 -34 -5 -37 -2 -5 4 -208 6
-232 1 -5 -1 -12 0 -16 1 -5 1 -26 2 -48 2 -22 0 -43 -1 -47 -2 -5 -1 -12 -1
-18 0 -22 4 -152 3 -161 -2 -5 -3 -18 -2 -29 2 -11 4 -34 4 -52 0 -18 -4 -34
-5 -37 -3 -5 5 -259 7 -281 3 -5 -1 -14 -1 -20 0 -5 1 -28 1 -50 1 -22 -1 -44
-1 -50 -1 -5 0 -28 0 -50 1 -22 0 -44 0 -50 -1 -5 -1 -14 -1 -20 0 -5 1 -32 2
-60 2 -27 0 -54 -1 -60 -2 -5 -1 -14 -1 -20 0 -8 1 -155 1 -200 -1 -5 0 -34 1
-63 3 -28 2 -52 0 -52 -4 0 -4 -12 -3 -27 1 -16 4 -39 5 -53 1 -14 -3 -41 -3
-60 0 -19 4 -47 3 -63 -1 -15 -4 -27 -4 -27 -1 0 6 -68 7 -95 2 -6 -2 -14 -1
-20 0 -13 2 -147 2 -160 0 -5 -1 -13 -1 -17 0 -5 1 -24 2 -43 2 -19 0 -38 -1
-42 -2 -5 -1 -12 -1 -18 0 -8 2 -152 1 -215 -1 -8 0 -39 1 -68 3 -28 2 -52 0
-52 -4 0 -4 -13 -3 -29 2 -16 4 -32 6 -35 3 -3 -3 -27 -5 -53 -4 -69 3 -136 3
-148 1 -5 -1 -14 -1 -20 0 -5 1 -28 1 -50 1 -22 -1 -44 -1 -50 -1 -5 0 -28 0
-50 1 -22 0 -44 0 -50 -1 -5 -1 -14 -1 -20 0 -5 1 -32 2 -60 2 -27 0 -54 -1
-60 -2 -5 -1 -14 -2 -20 0 -13 2 -198 2 -210 0 -6 -2 -13 -1 -17 0 -5 1 -26 2
-48 2 -22 0 -43 -1 -47 -2 -5 -1 -12 -1 -18 0 -22 4 -152 3 -161 -2 -5 -3 -18
-2 -29 2 -11 4 -34 4 -52 0 -18 -4 -34 -5 -37 -2 -5 4 -208 6 -232 1 -5 -1
-12 0 -16 1 -5 1 -26 2 -48 2 -22 0 -43 -1 -47 -2 -5 -1 -12 -1 -18 0 -22 4
-152 3 -161 -2 -5 -3 -18 -2 -29 2 -11 4 -34 4 -52 0 -18 -4 -34 -5 -37 -3 -5
5 -259 7 -281 3 -5 -1 -14 -1 -20 0 -5 1 -28 1 -50 1 -22 -1 -44 -1 -50 -1 -5
0 -28 0 -50 1 -22 0 -44 0 -50 -1 -5 -1 -14 -1 -20 0 -5 1 -32 2 -60 2 -27 0
-54 -1 -60 -2 -5 -1 -14 -1 -20 0 -8 1 -155 1 -200 -1 -5 0 -34 1 -63 3 -28 2
-52 0 -52 -4 0 -4 -13 -3 -29 2 -16 4 -32 6 -34 4 -7 -7 -90 -9 -102 -3 -6 3
-30 2 -55 -3z"/>
</g>
</svg>
