<?xml version="1.0" encoding="UTF-8"?>
<svg width="938px" height="604px" viewBox="0 0 938 604" version="1.1" xmlns="http://www.w3.org/2000/svg" xmlns:xlink="http://www.w3.org/1999/xlink">
    <!-- Generator: Sketch 62 (91390) - https://sketch.com -->
    <title>undraw_candidate_red</title>
    <desc>Created with Sketch.</desc>
    <g id="Page-1" stroke="none" stroke-width="1" fill="none" fill-rule="evenodd">
        <g id="undraw_candidate_red">
            <path d="M680.58429,566.65594 L675.71051,506.08026 L661.78503,570.13726 C661.78503,570.13726 661.96875,586.29778 662.43036,603.99999 L680.27081,603.99999 C680.87158,583.76422 680.58429,566.65594 680.58429,566.65594 Z" id="Path" fill="#F2F2F2" fill-rule="nonzero"></path>
            <path d="M429.9895,588.19861 C428.617995,582.534078 427.649736,576.779454 427.092,570.978 L425.14278,550.02347 C424.32296,544.28447 423.48092,539.228 422.63424,534.76474 C416.42647,502.94199 410.0179,501.79129 410.0179,501.79129 C409.74251,502.00211 409.47481,502.23557 409.19942,502.47647 C408.446362,503.161682 407.745066,503.901704 407.10128,504.69047 C396.89478,517.66278 389.9707,551.309 386.333,573.629 C384.32421,585.95828 383.32348,594.83 383.32348,594.83 C383.32348,594.83 384.23314,598.60911 385.47348,604 L432.04825,604 C431.871613,598.67893 431.182171,593.387301 429.9895,588.19861 L429.9895,588.19861 Z" id="Path" fill="#F2F2F2" fill-rule="nonzero"></path>
            <path d="M796.22046,0 L141.77954,0 C63.80078,0 0,63.80078 0,141.77954 L0,462.22046 C0,540.19922 63.80078,604 141.77954,604 L349.20166,604 L346.52515,591.3985 C346.52515,591.3985 339.6405,546.97144 346.52515,512.33337 C348.748248,501.465739 350.273661,490.466991 351.09204,479.40454 C351.953233,466.915657 353.994644,454.536329 357.18896,442.43219 C357.37085,441.73334 357.57544,441.04077 357.76538,440.34412 C356.08643,439.88757 355.31494,439.52252 355.70483,439.29218 C356.78064,438.65686 357.37231,436.71106 357.66699,434.24225 C359.500685,417.897272 362.997853,401.78213 368.10413,386.14734 C361.14746,390.51459 356.52856,390.97839 353.50476,389.28607 C342.87927,386.38446 347.29028,362.48607 347.29028,362.48607 C347.29028,362.48607 353.89355,310.79625 356.0874,292.08037 C357.3484,281.32237 373.50684,275.22631 387.81055,271.91619 C389.31775,268.68328 390.40332,265.42638 389.71411,262.00859 C389.66772,261.77843 389.60095,261.55584 389.53992,261.3311 C387.72131,257.29155 384.02417,253.96795 382.63684,249.78478 C382.022037,248.658869 381.588927,247.442918 381.35352,246.18187 C380.12488,239.00982 386.83118,232.81432 388.76477,225.91649 C386.792335,224.011379 385.319547,221.649737 384.47656,219.04027 C381.52991,212.99682 382.96656,205.74297 392.42871,200.14245 C394.31763,199.02445 396.31934,198.03745 398.35254,197.09075 C399.097097,196.609299 399.907246,196.237833 400.75793,195.98784 C407.52808,192.9254 414.33313,189.96215 418.38477,183.99984 C419.42822,182.46431 420.34338,180.683 422.03149,179.87575 C422.82688,179.535545 423.678197,179.34496 424.54272,179.31356 C437.58813,178.31209 449.40027,189.49904 462.38342,187.89577 C466.31653,187.41005 470.33154,185.75667 474.10669,186.94677 C476.58769,187.72877 478.52344,189.63433 480.1908,191.60454 C489.377809,202.571497 493.194666,217.064517 490.6012,231.13396 C488.95483,239.68682 484.95178,248.50243 487.83643,256.73143 C489.95605,262.77782 495.63062,267.68505 495.67102,274.08117 C495.70435,279.34429 491.96826,283.54381 488.35864,287.63903 C488.82788,288.11907 489.28532,288.61209 489.73096,289.11809 C498.55176,299.16845 496.88496,307.74596 495.64096,311.18047 L495.64133,311.18218 L491.105,354.956 L487.28,384.32306 C487.28,384.32306 486.3342,396.37506 477.42587,399.01837 C474.83041,400.21863 471.43087,400.5351 466.96225,399.17505 C464.06247,398.29254 461.61911,397.41064 459.54514,396.55328 C461.50522,402.81293 464.87875,415.5932 464.3309,427.99713 C463.5659,445.31613 465.86081,446.8222 465.86081,446.8222 C465.716856,446.999988 465.553673,447.161302 465.37424,447.3032 C474.46103,467.37925 474.5444,487.9772 465.09592,508.56834 C454.3862,531.91134 465.86081,586.12748 465.86081,586.12748 C465.86081,586.12748 466.67758,594.58464 467.04481,604 L631.33281,604 C628.71981,579.07713 625.58056,554.12651 624.18627,551.33793 C621.88744,546.74015 624.80645,470.99266 625.89593,444.68205 C625.41173,444.55949 624.93865,444.43505 624.49273,444.30699 C623.7163,444.08415 623.01793,443.85185 622.37285,443.61448 C622.340128,444.953429 622.481614,446.290951 622.79375,447.59342 C623.76075,449.84971 621.44158,451.5081 617.50084,452.63975 C619.79314,463.82566 622.62426,484.64048 613.04595,488.67344 C603.19317,492.822 602.9959,467.62162 603.53695,454.48613 C602.29439,454.53213 601.04806,454.55619 599.81673,454.55619 C587.98012,454.55619 603.29812,317.39061 602.60195,308.33909 C601.9056,299.28752 608.17202,262.38509 608.17202,262.38509 C608.17202,262.38509 610.26089,254.72616 616.5273,253.33358 C622.79371,251.941 652.73342,234.53426 652.73342,234.53426 C654.417296,232.16865 656.545779,230.153635 659,228.60175 L659,227.57159 C659.780565,226.844294 660.610862,226.172277 661.48486,225.56042 C661.11963,219.47662 660.29663,211.62805 659.69659,206.32532 C656.33116,202.896042 654.057806,198.546096 653.16382,193.8252 C651.881089,192.823872 650.66336,191.741954 649.51801,190.586 C646.642878,187.2896 644.993449,183.101967 644.84827,178.73029 C644.720484,174.388325 645.348782,170.057214 646.70508,165.93054 C647.059549,164.559406 647.602382,163.24403 648.31808,162.02197 C649.302622,160.605108 650.538066,159.380316 651.9634,158.40808 C652.38619,158.09454 652.82271,157.80096 653.25783,157.50519 C654.180995,155.711737 655.534631,154.175295 657.19747,153.03351 C660.75136,150.70038 665.32436,150.89093 669.57412,150.99689 C669.63698,150.99847 669.70217,150.99805 669.76638,150.99847 C670.554527,150.871637 671.345583,150.76674 672.13955,150.68378 C673.088304,150.49566 673.835645,149.763628 674.04336,148.81897 C674.618613,149.371577 675.193827,149.92417 675.769,150.47675 C676.63222,150.46429 677.494913,150.47908 678.35708,150.52112 C678.73857,149.647419 679.187064,148.804532 679.69855,148 C680.013983,148.899407 680.329317,149.79884 680.64455,150.6983 C681.51064,150.79047 682.37355,150.90662 683.23208,151.05579 C683.908747,150.51801 684.585523,149.980247 685.26241,149.4425 C685.41262,149.32312 685.95141,151.08533 686.22317,151.69 C686.68892,151.80963 687.15359,151.93677 687.61367,152.07928 C688.33303,152.04651 689.13216,151.91174 689.57638,151.91913 C692.025829,151.836178 694.449596,152.440499 696.57338,153.6637 C698.428195,155.012932 699.949532,156.76886 701.02082,158.79694 C703.756005,163.124961 705.454843,168.026123 705.98494,173.11847 C707.31436,174.959967 708.251745,177.054685 708.73909,179.27301 C709.88856,186.26245 703.24623,192.10321 701.92982,199.06323 C701.22767,202.77649 702.02925,206.88861 700.13782,210.16023 C699.309939,211.477796 698.225178,212.615132 696.94824,213.5044 C696.193538,214.067506 695.406438,214.585834 694.591,215.05671 C694.634639,219.267111 695.117589,223.461462 696.032,227.5716 L696.92776,231.0066 C698.32082,232.01094 699.8232,233.17182 701.47243,234.53431 C701.47243,234.53431 720.96804,242.88954 727.93075,247.06721 C734.05175,250.73982 740.70663,251.188 742.7001,255.97242 L743.24862,256.11872 C743.24862,256.11872 750.21139,333.40492 750.90768,346.63404 C751.60397,359.86316 759.95919,441.32698 758.56679,444.80836 C758.05129,446.09681 754.76784,447.57536 750.80324,448.75117 C753.11697,459.32557 756.85224,482.3227 746.73,486.58467 C736.46853,490.90534 736.68038,463.39173 737.29165,450.82844 C735.92312,450.70478 735.02627,450.34657 734.89352,449.68226 C734.78023,449.11659 734.4172,446.55989 733.8926,442.66194 C733.02547,442.79719 732.12594,442.93629 731.1683,443.08161 C730.97591,443.11067 730.77352,443.1407 730.5779,443.17011 C739.40566,470.93843 719.8547,544.58168 716.09414,558.9969 C714.12914,566.52949 712.01009,585.15351 710.09927,604 L796.22036,604 C874.19922,604 938,540.19922 938,462.22046 L938,141.77954 C938,63.80078 874.19922,0 796.22046,0 Z" id="Path" fill="#F2F2F2" fill-rule="nonzero"></path>
            <ellipse id="Oval" fill="#372525" fill-rule="nonzero" cx="210" cy="169" rx="95" ry="86.45"></ellipse>
            <path d="M366.5,451.5 L366.5,451.5 C366.5,451.5 398.5,429.5 398.5,419.5 C398.5,409.5 420.5,344.5 432.5,373.5 C444.5,402.5 415.5,443.5 415.5,443.5 C415.5,443.5 383.5,501.5 364.5,511.5 C345.5,521.5 329.5,515.5 329.5,515.5 L329.5,488.5 L347.78172,461.44306 C351.982624,455.225715 358.99647,451.499994 366.5,451.5 L366.5,451.5 Z" id="Path" fill="#FFB9B9" fill-rule="nonzero"></path>
            <path d="M275.54367,298.33627 C275.54367,298.33627 323.5,313.5 328.5,320.5 C333.5,327.5 335.5,315.5 349.5,361.5 C363.5,407.5 367,452 367,452 C367,452 332.5,463.5 336.5,508.5 C340.5,553.5 330.5,602.5 330.5,602.5 L318.01575,602.5 L290.5,517.5 L323.5,388.5 C323.5,388.5 276.58734,309.17255 275.54367,298.33627 Z" id="Path" fill="#5F0200" fill-rule="nonzero"></path>
            <circle id="Oval" fill="#FFB9B9" fill-rule="nonzero" cx="259.5" cy="196.5" r="60"></circle>
            <path d="M282.5,241.5 C282.5,241.5 265.5,297.5 280.5,305.5 C295.5,313.5 312.5,349.5 312.5,349.5 L286.5,378.5 L226.5,378.5 L199.5,348.5 L188.5,297.5 L203.5,285.5 C203.5,285.5 219.5,245.5 219.5,224.5 C219.5,203.5 282.5,241.5 282.5,241.5 Z" id="Path" fill="#FFB9B9" fill-rule="nonzero"></path>
            <path d="M287.5,303.5 C287.5,303.5 275.5,300.5 282.5,312.5 C289.5,324.5 296.5,346.5 271.5,347.5 C246.5,348.5 221.5,335.5 213.5,308.5 C205.5,281.5 202.5,283.5 199.5,284.5 C196.5,285.5 164.5,318.5 164.5,318.5 L175.5,380.5 L179.5,602.5 L325.5,602.5 C325.5,602.5 331.5,538.5 321.5,523.5 C311.5,508.5 330.5,470.5 330.5,470.5 C330.5,470.5 347.5,444.5 334.5,394.5 C321.5,344.5 292.5,303.5 287.5,303.5 Z" id="Path" fill="#AC2421" fill-rule="nonzero"></path>
            <path d="M206.5,284.5 C206.5,284.5 191.5,277.5 178.5,289.5 C165.5,301.5 136.5,311.5 136.5,317.5 C136.5,323.5 161.5,494.5 144.5,524.5 C127.5,554.5 109.5,602.5 109.5,602.5 L192.91339,602.5 C192.91339,602.5 206.5,552.5 220.5,525.5 C234.5,498.5 233.5,422.5 229.5,399.5 C225.5,376.5 206.5,284.5 206.5,284.5 Z" id="Path" fill="#5F0200" fill-rule="nonzero"></path>
            <polygon id="Path" fill="#FFB9B9" fill-rule="nonzero" points="118.5 549.5 123.37 602.5 177.417 602.5 172.5 536.5"></polygon>
            <polygon id="Path" fill="#372525" fill-rule="nonzero" points="364.5 521.5 377.5 602.5 666.5 602.5 691.5 439.5"></polygon>
            <polygon id="Path" fill="#372525" fill-rule="nonzero" points="702.5 428.5 705.5 443.5 331.5 533.5 331.5 520.5"></polygon>
            <polygon id="Path" fill="#372525" fill-rule="nonzero" points="544.5 455.5 542.5 472.5 564.5 469.5 555.5 452.5"></polygon>
            <path d="M423.5,283.5 C423.5,283.5 467.5,280.5 479.5,314.5 C491.5,348.5 519.5,409.5 530.5,418.5 C541.5,427.5 553.5,451.5 551.5,459.5" id="Path" stroke="#372525" stroke-width="5"></path>
            <path d="M430,283 C430,287.69442 425.00813,291.5 417,291.5 C408.99187,291.5 405,287.69442 405,283 C405,278.30558 408.99187,274.5 417,274.5 C425.00813,274.5 430,278.30558 430,283 Z" id="Path" fill="#AC2421" fill-rule="nonzero"></path>
            <path d="M356,439 C356,439 363.5,407.5 349.5,361.5 C335.5,315.5 333.5,327.5 328.5,320.5 C323.5,313.5 275.5437,298.33624 275.5437,298.33624 C275.8866,301.89697 281.18237,312.85324 288.1387,325.95972 C286.886408,321.235406 284.988991,316.706222 282.5,312.5 C275.5,300.5 287.5,303.5 287.5,303.5 C292.5,303.5 321.5,344.5 334.5,394.5 C347.5,444.5 330.5,470.5 330.5,470.5 L356,439 Z" id="Path" fill="#5F0200" fill-rule="nonzero"></path>
            <path d="M276,298 C276,298 281.92022,320.45759 286.96011,323.7288 C292,327 321.88976,358.05359 321.88976,358.05359 L318,333 L302,309 L297.74439,305.912 L276,298 Z" id="Path" fill="#5F0200" fill-rule="nonzero"></path>
            <path d="M143,367 L144.39427,315.5 C144.39427,315.5 111.5,329.5 108.5,389.5 C105.5,449.5 113.5,562.5 124.5,563.5 C135.5,564.5 187.5,552.5 187.5,552.5 C187.5,552.5 195.5,407.5 192.5,388.5 C189.5,369.5 143,367 143,367 Z" id="Path" fill="#000000" fill-rule="nonzero" opacity="0.1"></path>
            <path d="M145.5,315.5 L137.39427,315.5 C137.39427,315.5 104.5,329.5 101.5,389.5 C98.5,449.5 106.5,562.5 117.5,563.5 C128.5,564.5 180.5,552.5 180.5,552.5 C180.5,552.5 188.5,407.5 185.5,388.5 C182.5,369.5 145.5,315.5 145.5,315.5 Z" id="Path" fill="#5F0200" fill-rule="nonzero"></path>
            <ellipse id="Oval" fill="#372525" fill-rule="nonzero" cx="188" cy="180.5" rx="62" ry="69.5"></ellipse>
            <ellipse id="Oval" fill="#FFB9B9" fill-rule="nonzero" cx="232.5" cy="218.5" rx="12.5" ry="18.5"></ellipse>
            <circle id="Oval" fill="#372525" fill-rule="nonzero" cx="126" cy="111" r="51"></circle>
            <path d="M132.5918,151.85688 C117.549031,159.510887 99.6936472,159.226251 84.9024877,151.096655 C70.1113281,142.967059 60.3006445,128.045724 58.69948,111.24379 C55.7267276,130.742449 64.2651022,150.207004 80.6245299,161.225356 C96.9839576,172.243708 118.230542,172.839829 135.182037,162.75609 C152.133531,152.672351 161.749859,133.717167 159.87508,114.0825 C157.413134,130.340548 147.251826,144.409132 132.5918,151.85688 L132.5918,151.85688 Z" id="Path" fill="#372525" fill-rule="nonzero"></path>
            <path d="M98.02071,119.42955 C87.6228829,106.134671 84.4766133,88.5563734 89.617449,72.4802914 C94.7582847,56.4042094 107.520211,43.9130602 123.70283,39.11812 C103.996077,39.9415211 86.5312648,52.0556431 78.8562404,70.2250706 C71.181216,88.3944982 74.6724139,109.360737 87.8210273,124.062711 C100.969641,138.764686 121.417605,144.565754 140.32783,138.95884 C123.899445,139.661825 108.142693,132.388388 98.02071,119.42955 Z" id="Path" fill="#372525" fill-rule="nonzero"></path>
            <ellipse id="Oval" fill="#372525" fill-rule="nonzero" cx="263" cy="150" rx="36" ry="26"></ellipse>
        </g>
    </g>
</svg>